<svg width="20" height="16" viewBox="0 0 20 16" fill="none" xmlns="http://www.w3.org/2000/svg">
<g clip-path="url(#clip0_84_1503)">
<path d="M3.36028 11.7661C3.47898 11.6474 3.64219 11.5781 3.81529 11.5781H19.5132C19.8001 11.5781 19.9435 11.9243 19.7407 12.1271L16.6397 15.2281C16.521 15.3468 16.3578 15.4161 16.1847 15.4161H0.486779C0.199924 15.4161 0.0564964 15.0698 0.259273 14.8671L3.36028 11.7661Z" fill="url(#paint0_linear_84_1503)"/>
<path d="M3.36028 0.18794C3.48392 0.0692409 3.64713 0 3.81529 0H19.5132C19.8001 0 19.9435 0.346205 19.7407 0.548982L16.6397 3.64999C16.521 3.76869 16.3578 3.83793 16.1847 3.83793H0.486779C0.199924 3.83793 0.0564964 3.49172 0.259273 3.28894L3.36028 0.18794Z" fill="url(#paint1_linear_84_1503)"/>
<path d="M16.6397 5.93989C16.521 5.82119 16.3578 5.75195 16.1847 5.75195H0.486779C0.199924 5.75195 0.0564964 6.09816 0.259273 6.30093L3.36028 9.40194C3.47898 9.52064 3.64219 9.58988 3.81529 9.58988H19.5132C19.8001 9.58988 19.9435 9.24367 19.7407 9.0409L16.6397 5.93989Z" fill="url(#paint2_linear_84_1503)"/>
</g>
<defs>
<linearGradient id="paint0_linear_84_1503" x1="18.0136" y1="-1.85239" x2="7.14939" y2="18.9569" gradientUnits="userSpaceOnUse">
<stop stop-color="#00FFA3"/>
<stop offset="1" stop-color="#DC1FFF"/>
</linearGradient>
<linearGradient id="paint1_linear_84_1503" x1="13.2632" y1="-4.33255" x2="2.39897" y2="16.4768" gradientUnits="userSpaceOnUse">
<stop stop-color="#00FFA3"/>
<stop offset="1" stop-color="#DC1FFF"/>
</linearGradient>
<linearGradient id="paint2_linear_84_1503" x1="15.6232" y1="-3.1004" x2="4.75905" y2="17.7089" gradientUnits="userSpaceOnUse">
<stop stop-color="#00FFA3"/>
<stop offset="1" stop-color="#DC1FFF"/>
</linearGradient>
<clipPath id="clip0_84_1503">
<rect width="20" height="15.416" fill="white"/>
</clipPath>
</defs>
</svg>
